<svg xmlns="http://www.w3.org/2000/svg" viewBox="0 0 700 220" role="img" aria-label="Rose Changa Herbalist Africa logo">
  <defs>
    <linearGradient id="g" x1="0" y1="0" x2="1" y2="1">
      <stop offset="0%" stop-color="#0f5f43"/>
      <stop offset="100%" stop-color="#5c1d2f"/>
    </linearGradient>
  </defs>
  <g>
    <path d="M96 12l62 31v47c0 40-28 68-62 76-34-8-62-36-62-76V43l62-31z" fill="url(#g)"/>
    <path d="M96 42c14 12 22 31 22 51-16-9-26-22-31-39-5 17-15 30-31 39 0-20 8-39 22-51 5-4 11-8 18-11z" fill="#f7f3e9"/>
    <circle cx="96" cy="116" r="11" fill="#f7f3e9"/>
  </g>
  <g fill="#0b2f22" font-family="Segoe UI, Trebuchet MS, sans-serif">
    <text x="190" y="88" font-size="42" font-weight="700">Rose Changa</text>
    <text x="190" y="132" font-size="24" letter-spacing="4">HERBALIST AFRICA</text>
  </g>
</svg>
