<svg xmlns="http://www.w3.org/2000/svg" viewBox="0 0 860 260" role="img" aria-label="Rose Changa Herbalist Africa logo">
  <defs>
    <radialGradient id="logoGlow" cx="50%" cy="45%" r="65%">
      <stop offset="0%" stop-color="#8cbf54"/>
      <stop offset="100%" stop-color="#4f8f36"/>
    </radialGradient>
    <linearGradient id="logoLeaf" x1="0" y1="0" x2="1" y2="1">
      <stop offset="0%" stop-color="#0f5f43"/>
      <stop offset="100%" stop-color="#5c1d2f"/>
    </linearGradient>
  </defs>

  <g transform="translate(24 20)">
    <circle cx="92" cy="92" r="82" fill="url(#logoGlow)" opacity="0.16"/>
    <circle cx="92" cy="92" r="74" fill="#f7f3e9" stroke="#5c1d2f" stroke-opacity="0.48" stroke-width="2"/>
    <circle cx="92" cy="92" r="66" fill="none" stroke="#0f5f43" stroke-opacity="0.34" stroke-width="1.8"/>
    <circle cx="92" cy="92" r="60" fill="none" stroke="#5c1d2f" stroke-opacity="0.25" stroke-width="1.5"/>

    <text x="92" y="112" text-anchor="middle" font-family="Georgia, serif" font-size="88" fill="#5c1d2f" font-weight="700">R</text>

    <path d="M56 90c20 0 37 13 44 36-16-14-28-20-44-36Z" fill="url(#logoLeaf)" opacity="0.9"/>
    <path d="M50 90c14 7 26 19 35 37M62 93c8 5 16 14 24 26" stroke="#f7f3e9" stroke-opacity="0.8" stroke-linecap="round"/>
    <path d="M132 102c-18 4-33 16-39 36 14-11 24-18 39-36Z" fill="url(#logoLeaf)" opacity="0.9"/>
    <path d="M127 106c-14 7-24 19-31 30" stroke="#f7f3e9" stroke-opacity="0.8" stroke-linecap="round"/>
  </g>

  <g transform="translate(230 44)">
    <text x="0" y="86" font-family="'Arial Black', 'Trebuchet MS', sans-serif" font-size="94" letter-spacing="5" fill="#5c1d2f">ROSE</text>
    <text x="0" y="132" font-family="'Brush Script MT', 'Segoe Script', 'Lucida Handwriting', cursive" font-size="88" font-style="italic" fill="#0f5f43">Changa</text>
    <text x="6" y="186" font-family="'Trebuchet MS', 'Segoe UI', sans-serif" font-size="35" letter-spacing="7" fill="#0f5f43">HERBALIST AFRICA</text>
  </g>
</svg>
